<svg xmlns="http://www.w3.org/2000/svg" xmlns:xlink="http://www.w3.org/1999/xlink" width="1000" zoomAndPan="magnify" viewBox="0 0 750 749.999995" height="1000" preserveAspectRatio="xMidYMid meet" version="1.0"><defs><clipPath id="b9a7644372"><path d="M 168.75 654.167969 L 581 654.167969 L 581 675 L 168.75 675 Z M 168.75 654.167969 " clip-rule="nonzero"/></clipPath><clipPath id="b4ba322c37"><path d="M 179.167969 654.167969 L 570.832031 654.167969 C 573.597656 654.167969 576.246094 655.265625 578.199219 657.21875 C 580.152344 659.171875 581.25 661.820312 581.25 664.582031 C 581.25 667.347656 580.152344 669.996094 578.199219 671.949219 C 576.246094 673.902344 573.597656 675 570.832031 675 L 179.167969 675 C 176.402344 675 173.753906 673.902344 171.800781 671.949219 C 169.847656 669.996094 168.75 667.347656 168.75 664.582031 C 168.75 661.820312 169.847656 659.171875 171.800781 657.21875 C 173.753906 655.265625 176.402344 654.167969 179.167969 654.167969 " clip-rule="nonzero"/></clipPath><clipPath id="e69fab4b5c"><path d="M 168.75 75 L 581 75 L 581 96 L 168.75 96 Z M 168.75 75 " clip-rule="nonzero"/></clipPath><clipPath id="5fd5bf557a"><path d="M 179.167969 75 L 570.832031 75 C 573.597656 75 576.246094 76.097656 578.199219 78.050781 C 580.152344 80.003906 581.25 82.652344 581.25 85.417969 C 581.25 88.179688 580.152344 90.828125 578.199219 92.78125 C 576.246094 94.734375 573.597656 95.832031 570.832031 95.832031 L 179.167969 95.832031 C 176.402344 95.832031 173.753906 94.734375 171.800781 92.78125 C 169.847656 90.828125 168.75 88.179688 168.75 85.417969 C 168.75 82.652344 169.847656 80.003906 171.800781 78.050781 C 173.753906 76.097656 176.402344 75 179.167969 75 " clip-rule="nonzero"/></clipPath><clipPath id="41135a7b91"><path d="M 654 168.746094 L 674.996094 168.746094 L 674.996094 581 L 654 581 Z M 654 168.746094 " clip-rule="nonzero"/></clipPath><clipPath id="2ce7dd8b20"><path d="M 674.996094 179.164062 L 674.996094 570.828125 C 674.996094 573.589844 673.898438 576.242188 671.945312 578.195312 C 669.992188 580.148438 667.339844 581.246094 664.578125 581.246094 C 661.816406 581.246094 659.167969 580.148438 657.214844 578.195312 C 655.257812 576.242188 654.160156 573.589844 654.160156 570.828125 L 654.160156 179.164062 C 654.160156 176.398438 655.257812 173.75 657.214844 171.796875 C 659.167969 169.84375 661.816406 168.746094 664.578125 168.746094 C 667.339844 168.746094 669.992188 169.84375 671.945312 171.796875 C 673.898438 173.75 674.996094 176.398438 674.996094 179.164062 " clip-rule="nonzero"/></clipPath><clipPath id="256f31bf14"><path d="M 74.734375 168.746094 L 95.828125 168.746094 L 95.828125 581 L 74.734375 581 Z M 74.734375 168.746094 " clip-rule="nonzero"/></clipPath><clipPath id="9dc992aa58"><path d="M 95.828125 179.164062 L 95.828125 570.828125 C 95.828125 573.589844 94.730469 576.242188 92.777344 578.195312 C 90.824219 580.148438 88.175781 581.246094 85.410156 581.246094 C 82.648438 581.246094 80 580.148438 78.046875 578.195312 C 76.09375 576.242188 74.996094 573.589844 74.996094 570.828125 L 74.996094 179.164062 C 74.996094 176.398438 76.09375 173.75 78.046875 171.796875 C 80 169.84375 82.648438 168.746094 85.410156 168.746094 C 88.175781 168.746094 90.824219 169.84375 92.777344 171.796875 C 94.730469 173.75 95.828125 176.398438 95.828125 179.164062 " clip-rule="nonzero"/></clipPath></defs><rect x="-75" width="900" fill="#ffffff" y="-74.999999" height="899.999994" fill-opacity="1"/><rect x="-75" width="900" fill="#ffffff" y="-74.999999" height="899.999994" fill-opacity="1"/><rect x="-75" width="900" fill="#1f1f24" y="-74.999999" height="899.999994" fill-opacity="1"/><g clip-path="url(#b9a7644372)"><g clip-path="url(#b4ba322c37)"><path fill="#7b7b82" d="M 168.75 654.167969 L 580.078125 654.167969 L 580.078125 675.261719 L 168.75 675.261719 Z M 168.75 654.167969 " fill-opacity="1" fill-rule="nonzero"/></g></g><g clip-path="url(#e69fab4b5c)"><g clip-path="url(#5fd5bf557a)"><path fill="#7b7b82" d="M 168.75 75 L 580.078125 75 L 580.078125 96.09375 L 168.75 96.09375 Z M 168.75 75 " fill-opacity="1" fill-rule="nonzero"/></g></g><g clip-path="url(#41135a7b91)"><g clip-path="url(#2ce7dd8b20)"><path fill="#7b7b82" d="M 674.996094 168.746094 L 674.996094 580.074219 L 653.902344 580.074219 L 653.902344 168.746094 Z M 674.996094 168.746094 " fill-opacity="1" fill-rule="nonzero"/></g></g><g clip-path="url(#256f31bf14)"><g clip-path="url(#9dc992aa58)"><path fill="#7b7b82" d="M 95.828125 168.746094 L 95.828125 580.074219 L 74.734375 580.074219 L 74.734375 168.746094 Z M 95.828125 168.746094 " fill-opacity="1" fill-rule="nonzero"/></g></g></svg>