<svg xmlns="http://www.w3.org/2000/svg" xmlns:xlink="http://www.w3.org/1999/xlink" width="1000" zoomAndPan="magnify" viewBox="0 0 750 749.999995" height="1000" preserveAspectRatio="xMidYMid meet" version="1.0"><defs><g/><clipPath id="3ac897c775"><path d="M 164.488281 313.8125 L 386.488281 313.8125 L 386.488281 424.8125 L 164.488281 424.8125 Z M 164.488281 313.8125 " clip-rule="nonzero"/></clipPath></defs><g clip-path="url(#3ac897c775)"><path fill="#d2c2b0" d="M 164.488281 258.246094 L 386.488281 258.246094 L 386.488281 480.246094 L 164.488281 480.246094 Z M 164.488281 258.246094 " fill-opacity="1" fill-rule="nonzero"/></g><g fill="#ffffff" fill-opacity="1"><g transform="translate(193.684037, 412.75626)"><g><path d="M 69.191406 -48.300781 C 67.742188 -59.53125 59.890625 -66.050781 46.367188 -66.050781 C 40.332031 -66.050781 35.742188 -64.84375 31.394531 -61.945312 L 26.082031 -54.214844 L 26.082031 -64.359375 L 7.125 -64.359375 L 7.125 0 L 26.082031 0 L 26.082031 -29.824219 C 26.082031 -46.246094 31.636719 -53.007812 39.121094 -53.007812 C 46.488281 -53.007812 50.109375 -48.902344 50.59375 -42.382812 C 50.835938 -39.121094 50.835938 -35.863281 50.835938 -33.449219 L 50.835938 0 L 69.792969 0 L 69.792969 -36.347656 C 69.792969 -41.539062 69.671875 -45.039062 69.191406 -48.300781 Z M 69.191406 -48.300781 "/></g></g></g><g fill="#ffffff" fill-opacity="1"><g transform="translate(263.83967, 412.75626)"><g><path d="M 16.542969 -89.234375 C 10.503906 -89.234375 6.519531 -85.492188 6.519531 -79.695312 C 6.519531 -73.777344 10.503906 -70.035156 16.542969 -70.035156 C 22.582031 -70.035156 26.6875 -73.777344 26.6875 -79.695312 C 26.6875 -85.492188 22.582031 -89.234375 16.542969 -89.234375 Z M 26.082031 0 L 26.082031 -64.359375 L 7.125 -64.359375 L 7.125 0 Z M 26.082031 0 "/></g></g></g><g fill="#ffffff" fill-opacity="1"><g transform="translate(291.129123, 412.75626)"><g><path d="M 36.105469 -66.050781 C 17.871094 -66.050781 3.140625 -53.734375 3.140625 -31.636719 C 3.140625 -9.78125 16.664062 1.691406 34.535156 1.691406 C 51.320312 1.691406 63.636719 -6.640625 66.171875 -22.820312 L 47.453125 -22.820312 C 46.003906 -15.335938 41.417969 -11.351562 35.621094 -11.351562 C 27.773438 -11.351562 22.582031 -17.871094 22.582031 -32.84375 C 22.582031 -46.488281 27.652344 -53.007812 35.621094 -53.007812 C 41.898438 -53.007812 46.367188 -49.386719 47.695312 -40.570312 L 66.171875 -40.570312 C 65.203125 -54.941406 54.097656 -66.050781 36.105469 -66.050781 Z M 36.105469 -66.050781 "/></g></g></g><g fill="#ffffff" fill-opacity="1"><g transform="translate(354.28127, 412.75626)"><g><path d="M 37.070312 -66.050781 C 15.699219 -66.050781 3.140625 -52.285156 3.140625 -32.242188 C 3.140625 -12.195312 15.699219 1.691406 37.070312 1.691406 C 58.320312 1.691406 71 -12.195312 71 -32.242188 C 71 -52.285156 58.320312 -66.050781 37.070312 -66.050781 Z M 37.070312 -11.351562 C 28.015625 -11.351562 22.582031 -18.835938 22.582031 -32.242188 C 22.582031 -45.644531 28.015625 -53.007812 37.070312 -53.007812 C 46.003906 -53.007812 51.441406 -45.644531 51.441406 -32.242188 C 51.441406 -18.835938 46.003906 -11.351562 37.070312 -11.351562 Z M 37.070312 -11.351562 "/></g></g></g><g fill="#ffffff" fill-opacity="1"><g transform="translate(422.263418, 412.75626)"><g><path d="M 15.699219 -20.285156 C 9.296875 -20.285156 4.710938 -15.816406 4.710938 -9.296875 C 4.710938 -2.898438 9.296875 1.691406 15.699219 1.691406 C 22.21875 1.691406 26.6875 -2.898438 26.6875 -9.296875 C 26.6875 -15.816406 22.21875 -20.285156 15.699219 -20.285156 Z M 15.699219 -20.285156 "/></g></g></g><g fill="#ffffff" fill-opacity="1"><g transform="translate(198.347777, 447.181222)"><g><path d="M 3.359375 -12.710938 C 3.5 -13.578125 4.363281 -13.878906 5.671875 -13.636719 L 5.671875 -15.066406 C 5.308594 -15.125 4.886719 -15.167969 4.445312 -15.167969 C 2.855469 -15.167969 1.808594 -14.300781 1.628906 -12.753906 C 1.589844 -12.390625 1.570312 -11.867188 1.570312 -11.464844 L 1.570312 -10.582031 L 0.421875 -10.582031 L 0.421875 -9.253906 L 1.570312 -9.253906 L 1.570312 0 L 3.300781 0 L 3.300781 -9.253906 L 5.492188 -9.253906 L 5.492188 -10.582031 L 3.300781 -10.582031 L 3.300781 -11.625 C 3.300781 -11.929688 3.320312 -12.429688 3.359375 -12.710938 Z M 3.359375 -12.710938 "/></g></g></g><g fill="#ffffff" fill-opacity="1"><g transform="translate(203.17325, 447.181222)"><g><path d="M 10.339844 -10.660156 L 8.609375 -10.660156 L 8.609375 -5.972656 C 8.609375 -2.332031 7.28125 -1.085938 5.613281 -1.085938 C 4.164062 -1.085938 3.300781 -1.910156 3.136719 -3.117188 C 3.078125 -3.660156 3.058594 -4.246094 3.058594 -4.585938 L 3.058594 -10.660156 L 1.328125 -10.660156 L 1.328125 -4.265625 C 1.328125 -3.398438 1.347656 -2.976562 1.429688 -2.433594 C 1.667969 -0.964844 2.957031 0.28125 5.167969 0.28125 C 6.253906 0.28125 7.039062 0.101562 7.945312 -0.5625 L 8.609375 -1.808594 L 8.609375 0 L 10.339844 0 Z M 10.339844 -10.660156 "/></g></g></g><g fill="#ffffff" fill-opacity="1"><g transform="translate(214.071782, 447.181222)"><g><path d="M 3.136719 -14.785156 L 1.40625 -14.785156 L 1.40625 -2.996094 C 1.40625 -2.414062 1.40625 -1.949219 1.429688 -1.589844 C 1.488281 -0.242188 2.234375 0.0820312 3.238281 0.0820312 C 3.640625 0.0820312 4.082031 0.0585938 4.464844 0 L 4.464844 -1.246094 C 3.519531 -1.148438 3.199219 -1.367188 3.15625 -2.050781 C 3.136719 -2.394531 3.136719 -2.734375 3.136719 -3.058594 Z M 3.136719 -14.785156 "/></g></g></g><g fill="#ffffff" fill-opacity="1"><g transform="translate(218.032564, 447.181222)"><g><path d="M 3.136719 -14.785156 L 1.40625 -14.785156 L 1.40625 -2.996094 C 1.40625 -2.414062 1.40625 -1.949219 1.429688 -1.589844 C 1.488281 -0.242188 2.234375 0.0820312 3.238281 0.0820312 C 3.640625 0.0820312 4.082031 0.0585938 4.464844 0 L 4.464844 -1.246094 C 3.519531 -1.148438 3.199219 -1.367188 3.15625 -2.050781 C 3.136719 -2.394531 3.136719 -2.734375 3.136719 -3.058594 Z M 3.136719 -14.785156 "/></g></g></g><g fill="#ffffff" fill-opacity="1"><g transform="translate(221.993344, 447.181222)"><g/></g></g><g fill="#ffffff" fill-opacity="1"><g transform="translate(225.330718, 447.181222)"><g><path d="M 4.585938 -10.941406 C 2.394531 -10.941406 0.90625 -9.777344 0.90625 -7.824219 C 0.90625 -5.953125 2.433594 -5.167969 4.34375 -4.648438 C 6.136719 -4.164062 6.859375 -3.621094 6.859375 -2.59375 C 6.859375 -1.570312 5.933594 -1.046875 4.789062 -1.046875 C 3.558594 -1.046875 2.574219 -1.589844 2.292969 -3.136719 L 0.484375 -3.136719 C 0.804688 -0.722656 2.472656 0.28125 4.667969 0.28125 C 6.917969 0.28125 8.628906 -0.722656 8.628906 -2.734375 C 8.628906 -4.546875 7.460938 -5.511719 5.007812 -6.15625 C 3.558594 -6.539062 2.675781 -6.960938 2.675781 -8.027344 C 2.675781 -8.953125 3.238281 -9.613281 4.445312 -9.613281 C 5.691406 -9.613281 6.457031 -8.871094 6.699219 -7.625 L 8.507812 -7.625 C 8.289062 -9.574219 6.980469 -10.941406 4.585938 -10.941406 Z M 4.585938 -10.941406 "/></g></g></g><g fill="#ffffff" fill-opacity="1"><g transform="translate(233.554697, 447.181222)"><g><path d="M 3.558594 -9.253906 L 5.550781 -9.253906 L 5.550781 -10.582031 L 3.558594 -10.582031 L 3.558594 -13.054688 L 1.832031 -13.054688 L 1.832031 -10.582031 L 0.402344 -10.582031 L 0.402344 -9.253906 L 1.832031 -9.253906 L 1.832031 -3.039062 C 1.832031 -2.433594 1.832031 -1.992188 1.851562 -1.710938 C 1.949219 -0.382812 2.636719 0.160156 3.960938 0.160156 C 4.445312 0.160156 4.929688 0.140625 5.429688 0.0585938 L 5.429688 -1.207031 C 4.082031 -1.046875 3.660156 -1.265625 3.582031 -2.292969 C 3.558594 -2.574219 3.558594 -2.753906 3.558594 -3.117188 Z M 3.558594 -9.253906 "/></g></g></g><g fill="#ffffff" fill-opacity="1"><g transform="translate(238.842694, 447.181222)"><g><path d="M 7.601562 0 L 9.332031 0 C 9.171875 -1.1875 9.132812 -1.910156 9.132812 -2.714844 L 9.132812 -6.71875 C 9.132812 -7.179688 9.113281 -7.703125 9.070312 -8.125 C 8.890625 -9.875 7.824219 -10.941406 5.289062 -10.941406 C 2.9375 -10.941406 1.347656 -9.636719 1.1875 -7.363281 L 2.996094 -7.363281 C 3.117188 -8.832031 3.84375 -9.613281 5.289062 -9.613281 C 6.71875 -9.613281 7.28125 -8.972656 7.363281 -7.984375 C 7.402344 -7.582031 7.402344 -7.160156 7.402344 -6.699219 L 7.402344 -6.417969 L 6.71875 -6.417969 C 2.535156 -6.417969 0.722656 -5.167969 0.722656 -2.753906 C 0.722656 -0.785156 2.234375 0.28125 4.164062 0.28125 C 5.191406 0.28125 6.113281 0.121094 6.839844 -0.382812 L 7.421875 -1.527344 Z M 4.746094 -1.046875 C 3.441406 -1.046875 2.613281 -1.609375 2.613281 -2.898438 C 2.613281 -4.726562 4.464844 -5.351562 7.402344 -5.128906 L 7.402344 -4.042969 C 7.402344 -2.113281 6.355469 -1.046875 4.746094 -1.046875 Z M 4.746094 -1.046875 "/></g></g></g><g fill="#ffffff" fill-opacity="1"><g transform="translate(248.514536, 447.181222)"><g><path d="M 5.613281 -10.941406 C 2.9375 -10.941406 0.601562 -8.910156 0.601562 -5.308594 C 0.601562 -1.40625 2.65625 0.28125 5.351562 0.28125 C 7.722656 0.28125 9.496094 -0.925781 10.015625 -3.398438 L 8.207031 -3.398438 C 7.84375 -1.851562 6.859375 -1.046875 5.449219 -1.046875 C 3.863281 -1.046875 2.496094 -2.332031 2.496094 -5.429688 C 2.496094 -8.308594 3.902344 -9.613281 5.570312 -9.613281 C 7 -9.613281 7.925781 -8.789062 8.308594 -7.082031 L 10.117188 -7.082031 C 9.796875 -9.414062 8.167969 -10.941406 5.613281 -10.941406 Z M 5.613281 -10.941406 "/></g></g></g><g fill="#ffffff" fill-opacity="1"><g transform="translate(258.146164, 447.181222)"><g><path d="M 8.105469 0 L 10.460938 0 L 5.429688 -5.632812 L 10.398438 -10.660156 L 8.1875 -10.660156 L 3.21875 -5.289062 L 3.21875 -14.785156 L 1.488281 -14.785156 L 1.488281 0 L 3.21875 0 L 3.21875 -3.398438 L 4.222656 -4.503906 Z M 8.105469 0 "/></g></g></g><g fill="#ffffff" fill-opacity="1"><g transform="translate(267.637029, 447.181222)"><g/></g></g><g fill="#ffffff" fill-opacity="1"><g transform="translate(270.974406, 447.181222)"><g><path d="M 10.800781 -14.785156 L 9.070312 -14.785156 L 9.070312 -9.191406 L 8.367188 -10.238281 C 7.824219 -10.679688 6.699219 -10.941406 5.8125 -10.941406 C 3.058594 -10.941406 0.601562 -9.113281 0.601562 -5.167969 C 0.601562 -2.050781 2.332031 0.28125 5.449219 0.28125 C 6.539062 0.28125 7.664062 -0.0585938 8.265625 -0.5625 L 9.070312 -1.710938 L 9.070312 0 L 10.800781 0 Z M 5.710938 -1.046875 C 3.582031 -1.046875 2.496094 -2.957031 2.496094 -5.371094 C 2.496094 -8.167969 3.941406 -9.613281 5.8125 -9.613281 C 7.34375 -9.613281 9.070312 -8.570312 9.070312 -5.8125 L 9.070312 -5.230469 C 9.070312 -2.171875 7.484375 -1.046875 5.710938 -1.046875 Z M 5.710938 -1.046875 "/></g></g></g><g fill="#ffffff" fill-opacity="1"><g transform="translate(282.335442, 447.181222)"><g><path d="M 10.238281 -5.632812 C 10.238281 -8.75 8.609375 -10.941406 5.671875 -10.941406 C 2.753906 -10.941406 0.601562 -8.75 0.601562 -5.289062 C 0.601562 -1.527344 2.675781 0.28125 5.449219 0.28125 C 7.644531 0.28125 9.675781 -0.863281 10.097656 -3.441406 L 8.289062 -3.441406 C 8.046875 -1.910156 6.917969 -1.046875 5.53125 -1.046875 C 3.960938 -1.046875 2.636719 -1.992188 2.472656 -4.808594 L 10.199219 -4.808594 C 10.238281 -5.191406 10.238281 -5.472656 10.238281 -5.632812 Z M 5.632812 -9.613281 C 7.382812 -9.613281 8.328125 -8.347656 8.488281 -6.136719 L 2.496094 -6.136719 C 2.695312 -8.40625 3.941406 -9.613281 5.632812 -9.613281 Z M 5.632812 -9.613281 "/></g></g></g><g fill="#ffffff" fill-opacity="1"><g transform="translate(292.369261, 447.181222)"><g><path d="M 10.21875 -10.660156 L 8.386719 -10.660156 L 5.191406 -1.265625 L 1.929688 -10.660156 L 0.0195312 -10.660156 L 4.0625 0 L 6.175781 0 Z M 10.21875 -10.660156 "/></g></g></g><g fill="#ffffff" fill-opacity="1"><g transform="translate(301.699239, 447.181222)"><g><path d="M 10.238281 -5.632812 C 10.238281 -8.75 8.609375 -10.941406 5.671875 -10.941406 C 2.753906 -10.941406 0.601562 -8.75 0.601562 -5.289062 C 0.601562 -1.527344 2.675781 0.28125 5.449219 0.28125 C 7.644531 0.28125 9.675781 -0.863281 10.097656 -3.441406 L 8.289062 -3.441406 C 8.046875 -1.910156 6.917969 -1.046875 5.53125 -1.046875 C 3.960938 -1.046875 2.636719 -1.992188 2.472656 -4.808594 L 10.199219 -4.808594 C 10.238281 -5.191406 10.238281 -5.472656 10.238281 -5.632812 Z M 5.632812 -9.613281 C 7.382812 -9.613281 8.328125 -8.347656 8.488281 -6.136719 L 2.496094 -6.136719 C 2.695312 -8.40625 3.941406 -9.613281 5.632812 -9.613281 Z M 5.632812 -9.613281 "/></g></g></g><g fill="#ffffff" fill-opacity="1"><g transform="translate(311.733052, 447.181222)"><g><path d="M 3.136719 -14.785156 L 1.40625 -14.785156 L 1.40625 -2.996094 C 1.40625 -2.414062 1.40625 -1.949219 1.429688 -1.589844 C 1.488281 -0.242188 2.234375 0.0820312 3.238281 0.0820312 C 3.640625 0.0820312 4.082031 0.0585938 4.464844 0 L 4.464844 -1.246094 C 3.519531 -1.148438 3.199219 -1.367188 3.15625 -2.050781 C 3.136719 -2.394531 3.136719 -2.734375 3.136719 -3.058594 Z M 3.136719 -14.785156 "/></g></g></g><g fill="#ffffff" fill-opacity="1"><g transform="translate(315.69383, 447.181222)"><g><path d="M 5.894531 -10.941406 C 2.273438 -10.941406 0.601562 -8.347656 0.601562 -5.332031 C 0.601562 -2.332031 2.273438 0.28125 5.894531 0.28125 C 9.515625 0.28125 11.183594 -2.332031 11.183594 -5.332031 C 11.183594 -8.347656 9.515625 -10.941406 5.894531 -10.941406 Z M 5.894531 -1.046875 C 3.742188 -1.046875 2.496094 -2.835938 2.496094 -5.332031 C 2.496094 -7.84375 3.742188 -9.613281 5.894531 -9.613281 C 8.046875 -9.613281 9.292969 -7.84375 9.292969 -5.332031 C 9.292969 -2.835938 8.046875 -1.046875 5.894531 -1.046875 Z M 5.894531 -1.046875 "/></g></g></g><g fill="#ffffff" fill-opacity="1"><g transform="translate(326.471692, 447.181222)"><g><path d="M 6.839844 -10.941406 C 5.753906 -10.941406 4.625 -10.601562 4.023438 -10.097656 L 3.21875 -8.953125 L 3.21875 -10.660156 L 1.488281 -10.660156 L 1.488281 3.941406 L 3.21875 3.941406 L 3.21875 -1.46875 L 3.921875 -0.421875 C 4.464844 0.0195312 5.59375 0.28125 6.476562 0.28125 C 9.234375 0.28125 11.6875 -1.550781 11.6875 -5.492188 C 11.6875 -8.609375 9.957031 -10.941406 6.839844 -10.941406 Z M 6.476562 -1.046875 C 4.949219 -1.046875 3.21875 -2.09375 3.21875 -4.847656 L 3.21875 -5.429688 C 3.21875 -8.488281 4.808594 -9.613281 6.578125 -9.613281 C 8.710938 -9.613281 9.796875 -7.703125 9.796875 -5.289062 C 9.796875 -2.496094 8.347656 -1.046875 6.476562 -1.046875 Z M 6.476562 -1.046875 "/></g></g></g><g fill="#ffffff" fill-opacity="1"><g transform="translate(337.752292, 447.181222)"><g><path d="M 10.238281 -5.632812 C 10.238281 -8.75 8.609375 -10.941406 5.671875 -10.941406 C 2.753906 -10.941406 0.601562 -8.75 0.601562 -5.289062 C 0.601562 -1.527344 2.675781 0.28125 5.449219 0.28125 C 7.644531 0.28125 9.675781 -0.863281 10.097656 -3.441406 L 8.289062 -3.441406 C 8.046875 -1.910156 6.917969 -1.046875 5.53125 -1.046875 C 3.960938 -1.046875 2.636719 -1.992188 2.472656 -4.808594 L 10.199219 -4.808594 C 10.238281 -5.191406 10.238281 -5.472656 10.238281 -5.632812 Z M 5.632812 -9.613281 C 7.382812 -9.613281 8.328125 -8.347656 8.488281 -6.136719 L 2.496094 -6.136719 C 2.695312 -8.40625 3.941406 -9.613281 5.632812 -9.613281 Z M 5.632812 -9.613281 "/></g></g></g><g fill="#ffffff" fill-opacity="1"><g transform="translate(347.786106, 447.181222)"><g><path d="M 5.671875 -10.902344 C 5.167969 -10.902344 4.625 -10.722656 4.183594 -10.417969 L 3.21875 -8.992188 L 3.21875 -10.660156 L 1.488281 -10.660156 L 1.488281 0 L 3.21875 0 L 3.21875 -6.074219 C 3.21875 -8.507812 4.585938 -9.574219 6.398438 -9.453125 L 6.398438 -10.761719 C 6.195312 -10.863281 5.953125 -10.902344 5.671875 -10.902344 Z M 5.671875 -10.902344 "/></g></g></g></svg>