<svg xmlns="http://www.w3.org/2000/svg" xmlns:xlink="http://www.w3.org/1999/xlink" width="250" zoomAndPan="magnify" viewBox="0 0 187.5 93.749997" height="125" preserveAspectRatio="xMidYMid meet" version="1.0"><defs><g/></defs><g fill="#ffffff" fill-opacity="1"><g transform="translate(0.000003, 73.559017)"><g><path d="M 47.609375 -33.234375 C 46.609375 -40.960938 41.210938 -45.449219 31.90625 -45.449219 C 27.75 -45.449219 24.59375 -44.617188 21.601562 -42.621094 L 17.945312 -37.304688 L 17.945312 -44.285156 L 4.902344 -44.285156 L 4.902344 0 L 17.945312 0 L 17.945312 -20.523438 C 17.945312 -31.820312 21.769531 -36.472656 26.917969 -36.472656 C 31.988281 -36.472656 34.480469 -33.648438 34.8125 -29.164062 C 34.980469 -26.917969 34.980469 -24.675781 34.980469 -23.015625 L 34.980469 0 L 48.023438 0 L 48.023438 -25.007812 C 48.023438 -28.582031 47.941406 -30.992188 47.609375 -33.234375 Z M 47.609375 -33.234375 "/></g></g></g><g fill="#ffffff" fill-opacity="1"><g transform="translate(48.265352, 73.559017)"><g><path d="M 11.382812 -61.398438 C 7.226562 -61.398438 4.488281 -58.824219 4.488281 -54.835938 C 4.488281 -50.765625 7.226562 -48.1875 11.382812 -48.1875 C 15.535156 -48.1875 18.363281 -50.765625 18.363281 -54.835938 C 18.363281 -58.824219 15.535156 -61.398438 11.382812 -61.398438 Z M 17.945312 0 L 17.945312 -44.285156 L 4.902344 -44.285156 L 4.902344 0 Z M 17.945312 0 "/></g></g></g><g fill="#ffffff" fill-opacity="1"><g transform="translate(67.039336, 73.559017)"><g><path d="M 24.84375 -45.449219 C 12.296875 -45.449219 2.160156 -36.972656 2.160156 -21.769531 C 2.160156 -6.730469 11.464844 1.164062 23.761719 1.164062 C 35.3125 1.164062 43.785156 -4.570312 45.53125 -15.703125 L 32.652344 -15.703125 C 31.65625 -10.550781 28.5 -7.808594 24.511719 -7.808594 C 19.109375 -7.808594 15.535156 -12.296875 15.535156 -22.597656 C 15.535156 -31.988281 19.027344 -36.472656 24.511719 -36.472656 C 28.832031 -36.472656 31.90625 -33.980469 32.820312 -27.917969 L 45.53125 -27.917969 C 44.867188 -37.804688 37.222656 -45.449219 24.84375 -45.449219 Z M 24.84375 -45.449219 "/></g></g></g><g fill="#ffffff" fill-opacity="1"><g transform="translate(110.48638, 73.559017)"><g><path d="M 25.507812 -45.449219 C 10.800781 -45.449219 2.160156 -35.976562 2.160156 -22.183594 C 2.160156 -8.390625 10.800781 1.164062 25.507812 1.164062 C 40.128906 1.164062 48.855469 -8.390625 48.855469 -22.183594 C 48.855469 -35.976562 40.128906 -45.449219 25.507812 -45.449219 Z M 25.507812 -7.808594 C 19.277344 -7.808594 15.535156 -12.960938 15.535156 -22.183594 C 15.535156 -31.40625 19.277344 -36.472656 25.507812 -36.472656 C 31.65625 -36.472656 35.394531 -31.40625 35.394531 -22.183594 C 35.394531 -12.960938 31.65625 -7.808594 25.507812 -7.808594 Z M 25.507812 -7.808594 "/></g></g></g><g fill="#ffffff" fill-opacity="1"><g transform="translate(157.256386, 73.559017)"><g><path d="M 10.800781 -13.957031 C 6.398438 -13.957031 3.242188 -10.882812 3.242188 -6.398438 C 3.242188 -1.992188 6.398438 1.164062 10.800781 1.164062 C 15.289062 1.164062 18.363281 -1.992188 18.363281 -6.398438 C 18.363281 -10.882812 15.289062 -13.957031 10.800781 -13.957031 Z M 10.800781 -13.957031 "/></g></g></g></svg>